<svg width="32" height="32" viewBox="0 0 32 32" fill="none" xmlns="http://www.w3.org/2000/svg">
<path d="M32 0H0V32H32V0Z" fill="#61A8DE"/>
<path d="M25.1968 7.06376L3.79804 15.4026C3.10493 15.6728 3.14692 16.6674 3.8604 16.878L9.29806 18.4838L11.3274 24.9231C11.5394 25.5957 12.3917 25.7996 12.8852 25.2958L15.6966 22.4252L21.2128 26.4742C21.8879 26.9698 22.8493 26.6016 23.0207 25.782L26.6741 8.31482C26.853 7.45923 26.0113 6.74638 25.1968 7.06376ZM22.514 10.9402L12.5744 19.7298C12.4753 19.8174 12.4122 19.9387 12.3975 20.0701L12.0148 23.472C12.0023 23.5829 11.8471 23.5976 11.8139 23.491L10.2395 18.4176C10.1673 18.1853 10.2614 17.9337 10.468 17.8055L22.2057 10.5257C22.4756 10.3582 22.752 10.7298 22.514 10.9402Z" fill="white"/>
</svg>
