<svg width="32" height="32" viewBox="0 0 32 32" fill="none" xmlns="http://www.w3.org/2000/svg">
<path d="M32 0H0V32H32V0Z" fill="#1BD741"/>
<path d="M4.80933 27.2028L6.37678 21.6357C5.36881 19.9233 4.83811 17.975 4.83811 15.9736C4.83811 9.81099 9.85174 4.79736 16.0143 4.79736C22.1769 4.79736 27.1905 9.81099 27.1905 15.9736C27.1905 22.1362 22.1769 27.1498 16.0143 27.1498C14.0941 27.1498 12.2138 26.6583 10.5505 25.7249L4.80933 27.2028ZM10.844 23.6917L11.1861 23.9006C12.6363 24.7859 14.3059 25.2539 16.0143 25.2539C21.1315 25.2539 25.2946 21.0908 25.2946 15.9736C25.2946 10.8564 21.1315 6.69322 16.0143 6.69322C10.8971 6.69322 6.73397 10.8564 6.73397 15.9736C6.73397 17.7566 7.24073 19.4881 8.19933 20.9808L8.42971 21.3395L7.52707 24.5455L10.844 23.6917Z" fill="white"/>
<path d="M12.8749 10.7718L12.1497 10.7323C11.9219 10.7198 11.6985 10.796 11.5263 10.9455C11.1748 11.2508 10.6126 11.8411 10.4399 12.6102C10.1825 13.7571 10.5804 15.1614 11.6102 16.5657C12.6401 17.9701 14.5594 20.217 17.9531 21.1767C19.0468 21.4859 19.9071 21.2774 20.5708 20.8528C21.0965 20.5166 21.4589 19.9768 21.5895 19.3666L21.7053 18.8258C21.7421 18.6539 21.6548 18.4795 21.4952 18.4059L19.0442 17.2762C18.8851 17.2029 18.6965 17.2492 18.5894 17.3879L17.6273 18.6352C17.5546 18.7295 17.4302 18.7668 17.3178 18.7274C16.6589 18.4958 14.4517 17.5714 13.2406 15.2385C13.1881 15.1373 13.2011 15.0145 13.2756 14.9282L14.1952 13.8644C14.2892 13.7558 14.3129 13.6031 14.2564 13.4711L13.2 10.9994C13.1437 10.8678 13.0177 10.7796 12.8749 10.7718Z" fill="white"/>
</svg>
